<svg width="40" height="51" viewBox="0 0 40 51" fill="none" xmlns="http://www.w3.org/2000/svg">
<path d="M5.21629 24.6591C5.59086 24.6591 5.94956 24.6674 6.30957 24.6574C7.07858 24.634 7.84891 24.6307 8.6166 24.5621C9.51929 24.4819 10.4167 24.2863 11.3207 24.2411C12.639 24.1743 13.9613 24.2361 15.2782 24.1693C16.2855 24.1174 17.2888 23.9085 18.296 23.8483C19.0558 23.8032 19.8208 23.8784 20.5832 23.9118C20.6653 23.9152 20.7566 24.0389 20.8254 24.0155C22.374 23.5023 23.9226 24.1843 25.4858 23.9954C26.6347 23.8567 27.8167 24.1676 28.9854 24.2779C29.1151 24.2896 29.2633 24.3465 29.3732 24.288C30.7166 23.5858 32.0363 24.5487 33.3599 24.3665C34.3433 24.2311 35.2552 24.5738 36.191 24.7744C36.4531 24.8313 36.6966 25.0268 36.9944 25.1823C36.5577 26.0884 35.97 26.2639 35.2844 26.309C34.1381 26.3826 32.9946 26.6434 31.851 26.6333C30.2322 26.62 28.6148 26.3675 26.996 26.3408C25.5493 26.3174 24.1013 26.4979 22.6546 26.5146C21.9147 26.523 21.1735 26.3341 20.431 26.3057C19.7771 26.2806 19.1206 26.3408 18.4668 26.3926C17.4953 26.4695 16.5251 26.5999 15.5536 26.6467C15.1988 26.6634 14.8401 26.4411 14.4828 26.4411C13.8369 26.4411 13.1909 26.5815 12.5477 26.5665C11.7376 26.5481 10.9276 26.3558 10.1215 26.3843C9.43855 26.4077 8.76087 26.64 8.17849 26.7604C9.65165 27.7584 11.1566 28.8182 12.6919 29.8012C13.4927 30.3144 14.3504 30.6872 15.1777 31.1352C15.3775 31.2438 15.5933 31.3542 15.7428 31.5397C15.8778 31.7069 16.0208 31.9978 15.9956 32.2C15.9692 32.409 15.7415 32.7367 15.6039 32.7367C14.9407 32.73 14.2591 32.73 13.6211 32.5377C12.8984 32.3187 12.2194 31.8807 11.5126 31.5631C10.0964 30.9296 8.66425 30.3512 7.26389 29.6674C6.81651 29.4501 6.46708 28.9352 6.04221 28.6193C5.26658 28.0392 4.39831 27.6196 3.69548 26.9275C2.43409 25.6872 2.31629 23.9737 3.91652 22.954C4.1005 22.8369 4.2408 22.6179 4.41022 22.4625C4.8973 22.0145 5.38438 21.5631 5.88338 21.1352C6.19707 20.866 6.52929 20.6337 6.85622 20.3913C7.7192 19.7527 8.59807 19.1459 9.44252 18.4705C10.0659 17.9723 10.6404 17.3772 11.2466 16.8423C11.5338 16.5899 11.8263 16.2572 12.1479 16.182C12.4828 16.1034 12.9156 16.1686 13.1989 16.3909C13.6132 16.7169 13.3762 17.1515 13.1036 17.4909C12.5847 18.1328 12.0632 18.7731 11.5457 19.4167C11.3181 19.6992 11.1275 20.0502 10.8654 20.2625C10.4908 20.5651 10.0646 20.7691 9.66224 21.0148C9.5087 21.1084 9.30222 21.1586 9.21222 21.3124C8.67351 22.2368 7.86744 22.623 7.09579 23.096C6.85622 23.2432 6.67356 23.534 6.44591 23.7213C6.07133 24.0305 5.68087 24.308 5.21629 24.6607V24.6591Z" fill="#14213D"/>
</svg>
